<?xml version="1.0" encoding="utf-8"?>
<!-- Generator: Adobe Illustrator 24.3.0, SVG Export Plug-In . SVG Version: 6.00 Build 0)  -->
<svg version="1.1" xmlns="http://www.w3.org/2000/svg" xmlns:xlink="http://www.w3.org/1999/xlink" x="0px" y="0px"
	 viewBox="0 0 1200 1200" style="enable-background:new 0 0 1200 1200;" xml:space="preserve">
<g id="Layer_4">
</g>
<g id="Layer_3">
</g>
<g id="Layer_5">
	<path d="M197.94,258.75L197.94,258.75c4.03-12.83,18.51-20.23,32.17-16.44l163.53,45.34c3.51,0.97,6.63,2.6,9.27,4.69
		c5.72,3.43,9.55,9.42,9.55,16.23v74.74l544.9,81.18l7.64,0.48v129.35c0,52.66-40.2,96.66-93.3,106.4H458.27
		c-16.86-3.1-32.42-9.65-45.81-18.84v18.84v85.12h66.14h38.24h296.31h38.24c39.03,8.31,68.29,41.49,68.29,81.07
		c0,45.82-39.21,83.09-87.41,83.09s-87.41-37.28-87.41-83.09c0-14.71,4.06-28.53,11.15-40.53H573.98
		c7.09,12,11.15,25.82,11.15,40.53c0,45.82-39.21,83.09-87.41,83.09s-87.41-37.28-87.41-83.09c0-14.71,4.06-28.53,11.15-40.53
		h-29.49h-5.4h-1.08c-11.28,0-20.5-8.66-20.5-19.25v-3.04V594.32V436.25v-21.28v-84.55l-149.53-41.46
		C201.78,285.17,193.9,271.57,197.94,258.75z M832.26,909.47c24.4,0,44.25-19.09,44.25-42.56c0-19.02-13.05-35.17-30.98-40.6
		c-0.46,0.03-0.92,0.07-1.39,0.07h-25.33c-17.84,5.49-30.79,21.58-30.79,40.53C788.01,890.37,807.86,909.47,832.26,909.47z
		 M497.72,909.47c24.4,0,44.25-19.09,44.25-42.56c0-18.95-12.96-35.04-30.79-40.53h-26.91c-17.84,5.49-30.79,21.58-30.79,40.53
		C453.47,890.37,473.32,909.47,497.72,909.47z"/>
</g>
</svg>
