<?xml version="1.0" encoding="utf-8"?>
<!-- Generator: Adobe Illustrator 24.3.0, SVG Export Plug-In . SVG Version: 6.00 Build 0)  -->
<svg version="1.1" id="Calque_1" xmlns="http://www.w3.org/2000/svg" xmlns:xlink="http://www.w3.org/1999/xlink" x="0px" y="0px"
	 viewBox="0 0 31.4 31.43" style="enable-background:new 0 0 31.4 31.43;" xml:space="preserve">
<style type="text/css">
	.st0{fill:#FFFFFF;}
</style>
<path class="st0" d="M10.16,22.98c-0.33,0-0.65-0.02-0.96,0.01C8.95,23,8.68,22.71,8.68,22.46c0.01-4.12,0.01-8.25,0.01-12.37
	c0-0.06,0-0.11,0-0.17C7.89,9.7,7.1,9.48,6.31,9.25C5.76,9.1,5.21,8.96,4.67,8.8C4.39,8.71,4.22,8.4,4.26,8.08
	c0.03-0.25,0.3-0.48,0.55-0.52c0.27-0.05,0.51,0.07,0.75,0.13C6.28,7.88,6.99,8.08,7.7,8.27C8.29,8.44,8.87,8.6,9.46,8.77
	C9.63,8.81,9.78,8.9,9.87,9.05c0.04,0.08,0.08,0.17,0.08,0.25c0.01,0.62,0.01,1.24,0,1.86c0,0.1,0.02,0.13,0.13,0.14
	c0.26,0.02,0.51,0.07,0.77,0.11c0.27,0.04,0.54,0.08,0.81,0.12c0.26,0.04,0.53,0.07,0.79,0.11c0.27,0.04,0.54,0.08,0.8,0.12
	c0.33,0.05,0.66,0.11,1,0.16c0.32,0.05,0.63,0.09,0.95,0.14c0.39,0.06,0.77,0.12,1.16,0.18c0.33,0.05,0.66,0.09,0.99,0.14
	c0.32,0.05,0.64,0.1,0.96,0.15c0.33,0.05,0.66,0.09,0.99,0.14c0.25,0.04,0.5,0.08,0.75,0.11c0.27,0.04,0.54,0.08,0.8,0.12
	c0.27,0.04,0.55,0.08,0.82,0.12c0.25,0.04,0.49,0.08,0.74,0.11c0.35,0.05,0.71,0.11,1.06,0.16c0.35,0.05,0.7,0.1,1.06,0.15
	c0,0.05,0,0.09,0,0.14c0,1.07,0,2.14,0,3.21c0,0.71-0.23,1.34-0.7,1.88c-0.47,0.54-1.07,0.84-1.75,0.99c-0.03,0.01-0.07,0-0.11,0
	c-3.58,0-7.16,0-10.74-0.01c-0.27,0-0.54-0.13-0.8-0.22c-0.16-0.06-0.3-0.15-0.46-0.24c0,0.89,0,1.78,0,2.68c0.06,0,0.11,0,0.17,0
	c3.69,0,7.38,0,11.07-0.01c0.44,0,0.82,0.12,1.18,0.37c0.52,0.36,0.84,0.84,0.94,1.46c0.09,0.58-0.04,1.13-0.41,1.61
	c-0.39,0.51-0.91,0.81-1.55,0.89c-0.69,0.09-1.3-0.07-1.84-0.5c-0.4-0.32-0.66-0.73-0.76-1.23c-0.1-0.45-0.06-0.9,0.15-1.33
	c0.03-0.05,0.05-0.11,0.08-0.17c-1.59,0-3.16,0-4.73,0c0.2,0.37,0.3,0.76,0.27,1.18c-0.03,0.47-0.19,0.89-0.5,1.25
	c-0.35,0.42-0.8,0.68-1.33,0.78c-0.69,0.14-1.33,0.01-1.9-0.41c-0.41-0.3-0.69-0.69-0.82-1.19c-0.14-0.53-0.08-1.03,0.16-1.52
	C10.13,23.04,10.14,23.02,10.16,22.98z M21.03,22.98c-0.73-0.09-1.17,0.57-1.17,1.04c0,0.67,0.51,1.14,1.16,1.14
	c0.59,0,1.12-0.43,1.13-1.08C22.16,23.42,21.7,22.98,21.03,22.98z M12.2,22.98c-0.71-0.08-1.18,0.57-1.16,1.07
	c0.02,0.67,0.53,1.11,1.16,1.11c0.65,0,1.13-0.48,1.15-1.11C13.37,23.54,12.87,22.89,12.2,22.98z"/>
<path class="st0" d="M26.82,4.99c-3.03-3.1-6.77-4.62-11.05-4.69c-4.25,0.06-7.89,1.49-10.9,4.41C1.87,7.62,0.28,11.2,0.15,15.37
	c-0.13,4.44,1.38,8.3,4.5,11.46c2.92,2.95,6.5,4.49,10.65,4.59c4.21,0.1,7.91-1.29,10.99-4.16c3.16-2.95,4.83-6.63,4.95-10.96
	C31.37,11.93,29.88,8.12,26.82,4.99z M26.11,26.05c-0.01-0.02-0.02-0.04-0.03-0.07c-0.15,0.15-0.29,0.31-0.45,0.46
	c-0.12,0.11-0.25,0.21-0.37,0.31c0,0,0,0.01,0,0.01c0.01,0.03,0,0.08-0.02,0.09c-0.43,0.33-0.85,0.67-1.28,0.99
	c-0.5,0.37-1.04,0.67-1.59,0.96c-0.77,0.41-1.58,0.74-2.41,0.99c-0.49,0.15-0.98,0.26-1.48,0.37c-0.32,0.07-0.65,0.11-0.97,0.15
	c-0.28,0.04-0.57,0.06-0.85,0.08c-0.32,0.02-0.64,0.04-0.95,0.05c0-0.01,0-0.02,0-0.03c-0.28,0-0.57,0.02-0.85,0
	c-0.42-0.03-0.84-0.07-1.26-0.14c-0.49-0.08-0.98-0.17-1.47-0.28c-0.62-0.14-1.23-0.35-1.82-0.59c-0.4-0.17-0.79-0.34-1.17-0.53
	c-0.59-0.29-1.16-0.63-1.69-1.01c-0.37-0.26-0.72-0.55-1.07-0.82c-0.07-0.05-0.13-0.1-0.19-0.16c-0.04-0.03-0.06-0.07-0.05-0.13
	c-0.26-0.23-0.53-0.46-0.78-0.72C5.33,26.02,5.31,26,5.3,25.98C5.29,26,5.28,26.02,5.27,26.04c-0.65-0.67-1.21-1.41-1.72-2.17
	c-0.07-0.11-0.14-0.21-0.21-0.32c-0.15-0.24-0.3-0.49-0.44-0.74c-0.22-0.39-0.42-0.79-0.59-1.2c-0.02-0.04-0.04-0.08-0.06-0.13
	c-0.47-1.1-0.79-2.25-0.97-3.46c-0.01-0.08-0.02-0.16-0.03-0.24c-0.06-0.44-0.1-0.89-0.11-1.35c-0.01-0.19-0.01-0.39-0.01-0.58
	c0-0.18-0.01-0.36-0.01-0.54c0.12-3.91,1.61-7.27,4.42-9.99c2.82-2.74,6.24-4.07,10.22-4.13c4.01,0.07,7.52,1.49,10.36,4.39
	c2.61,2.67,3.98,5.86,4.13,9.5c0.01,0.26,0.02,0.53,0.02,0.79c0,0.11,0.01,0.21,0.01,0.32c0,0.05-0.01,0.09-0.01,0.13
	c-0.01,0.31-0.04,0.63-0.07,0.94c-0.08,0.89-0.24,1.74-0.47,2.57c-0.01,0.04-0.02,0.09-0.04,0.13c-0.09,0.3-0.18,0.6-0.29,0.9
	c-0.02,0.06-0.05,0.11-0.07,0.17c-0.15,0.38-0.31,0.76-0.49,1.13c-0.13,0.27-0.26,0.53-0.41,0.79c-0.04,0.07-0.09,0.15-0.13,0.22
	C27.7,24.19,26.97,25.16,26.11,26.05z"/>
</svg>
