<?xml version="1.0" encoding="utf-8"?>
<!-- Generator: Adobe Illustrator 24.3.0, SVG Export Plug-In . SVG Version: 6.00 Build 0)  -->
<svg version="1.1" id="Calque_1" xmlns="http://www.w3.org/2000/svg" xmlns:xlink="http://www.w3.org/1999/xlink" x="0px" y="0px"
	 viewBox="0 0 335.16 333.12" style="enable-background:new 0 0 335.16 333.12;" xml:space="preserve">
<style type="text/css">
	.st0{fill:#FFFFFF;}
</style>
<g>
	<path class="st0" d="M322.76,102.75c-8.46-19.75-20.56-37.47-35.96-52.68c-15.38-15.19-33.29-27.11-53.22-35.43
		C212.95,6.03,191.06,1.66,168.5,1.66s-44.45,4.37-65.08,12.98C83.49,22.97,65.58,34.89,50.2,50.07
		c-15.4,15.21-27.5,32.93-35.96,52.68c-8.77,20.48-13.22,42.22-13.22,64.64c0,22.41,4.45,44.16,13.22,64.64
		c8.46,19.75,20.56,37.47,35.96,52.68c15.38,15.19,33.29,27.11,53.22,35.43c20.62,8.61,42.52,12.98,65.08,12.98
		s44.45-4.37,65.08-12.98c19.94-8.33,37.84-20.25,53.22-35.43c15.4-15.21,27.5-32.93,35.96-52.68
		c8.77-20.48,13.22-42.22,13.22-64.64C335.98,144.98,331.53,123.23,322.76,102.75z M168.5,299.01
		c-73.7,0-133.67-59.05-133.67-131.62c0-72.58,59.96-131.62,133.67-131.62s133.67,59.05,133.67,131.62
		C302.17,239.97,242.2,299.01,168.5,299.01z"/>
	<g>
		<path class="st0" d="M234.27,244.76c-16.39,9.86-36.37,14.79-59.93,14.79c-27.66,0-49.86-8.3-66.59-24.9
			c-16.74-16.59-25.1-38.04-25.1-64.34c0-26.62,8.36-48.15,25.1-64.59c16.73-16.43,38.93-24.65,66.59-24.65
			c23.22,0,43.2,4.93,59.93,14.79L223,121.5c-16.06-9.53-32.62-14.3-49.69-14.3c-17.42,0-31.42,5.84-42,17.5
			c-10.59,11.67-15.88,26.87-15.88,45.61c0,19.07,5.29,34.35,15.88,45.85c10.58,11.51,24.59,17.26,42,17.26
			c17.07,0,33.63-4.76,49.69-14.3L234.27,244.76z"/>
	</g>
</g>
</svg>
