<?xml version="1.0" encoding="utf-8"?>
<!-- Generator: Adobe Illustrator 24.3.0, SVG Export Plug-In . SVG Version: 6.00 Build 0)  -->
<svg version="1.1" id="Calque_1" xmlns="http://www.w3.org/2000/svg" xmlns:xlink="http://www.w3.org/1999/xlink" x="0px" y="0px"
	 viewBox="0 0 31.4 31.43" style="enable-background:new 0 0 31.4 31.43;" xml:space="preserve">
<style type="text/css">
	.st0{fill:#FFFFFF;}
</style>
<path class="st0" d="M15.76,0c4.32,0.07,8.09,1.6,11.15,4.73c3.09,3.16,4.59,7,4.47,11.42c-0.12,4.36-1.8,8.08-5,11.06
	c-3.11,2.9-6.84,4.31-11.09,4.2c-4.19-0.1-7.81-1.66-10.75-4.64c-3.15-3.19-4.68-7.08-4.54-11.56C0.14,11,1.74,7.38,4.76,4.45
	C7.8,1.5,11.48,0.06,15.76,0z M26.21,25.99c1.98-2.05,3.29-4.45,3.88-7.24c0.68-3.23,0.31-6.35-1.1-9.32
	c-1.4-2.94-3.56-5.19-6.44-6.72c-2.88-1.52-5.95-2-9.17-1.51C8.42,1.94,2.99,5.75,1.4,12.32c-0.59,2.45-0.54,4.9,0.14,7.33
	c0.67,2.42,1.91,4.53,3.64,6.32c1.28-3.56,3.73-5.79,7.39-6.7c-1.72-1.04-2.83-2.54-3.14-4.55c-0.31-2.01,0.22-3.8,1.6-5.31
	c1.19-1.3,2.7-1.98,4.46-2.04c1.76-0.06,3.31,0.52,4.59,1.74c1.2,1.13,1.88,2.54,1.96,4.18c0.13,2.62-1,4.6-3.21,5.99
	c1.74,0.38,3.27,1.15,4.58,2.34C24.73,22.83,25.66,24.28,26.21,25.99z M15.7,30.4c0,0.01,0,0.02,0,0.03
	c0.32-0.02,0.64-0.03,0.96-0.05c0.29-0.02,0.58-0.05,0.86-0.08c0.33-0.04,0.66-0.08,0.98-0.15c0.5-0.11,1-0.23,1.49-0.37
	c0.84-0.25,1.66-0.59,2.44-1c0.56-0.29,1.1-0.6,1.61-0.97c0.44-0.32,0.87-0.66,1.3-1c0.02-0.02,0.03-0.06,0.02-0.09
	c-0.12-0.52-0.31-1.03-0.54-1.51c-0.21-0.44-0.45-0.85-0.73-1.26c-0.29-0.43-0.62-0.82-0.98-1.19c-0.2-0.2-0.42-0.39-0.63-0.57
	c-0.4-0.35-0.83-0.64-1.28-0.9c-0.5-0.29-1.02-0.53-1.57-0.72c-0.51-0.18-1.04-0.32-1.58-0.38c-0.34-0.04-0.69-0.09-1.03-0.1
	c-0.81-0.01-1.61-0.01-2.42,0c-0.31,0-0.62,0.03-0.93,0.06c-0.34,0.04-0.68,0.09-1.01,0.16c-0.6,0.13-1.18,0.33-1.73,0.59
	c-0.49,0.23-0.98,0.49-1.41,0.82c-0.37,0.29-0.74,0.59-1.09,0.9c-0.18,0.16-0.34,0.34-0.49,0.53c-0.22,0.27-0.44,0.54-0.64,0.82
	c-0.31,0.43-0.56,0.9-0.78,1.39c-0.19,0.43-0.35,0.88-0.48,1.33c-0.02,0.07,0,0.11,0.05,0.15c0.06,0.05,0.13,0.11,0.2,0.16
	c0.36,0.28,0.71,0.57,1.08,0.83c0.54,0.38,1.12,0.72,1.71,1.02c0.39,0.19,0.79,0.37,1.19,0.53c0.6,0.25,1.21,0.45,1.84,0.6
	c0.49,0.11,0.98,0.21,1.48,0.29c0.42,0.07,0.84,0.11,1.27,0.14C15.13,30.42,15.42,30.4,15.7,30.4z M10.35,13.61
	c0.01,1.51,0.49,2.73,1.43,3.75c0.99,1.07,2.23,1.65,3.68,1.71c1.49,0.07,2.8-0.42,3.89-1.44c1.04-0.97,1.62-2.18,1.7-3.6
	c0.09-1.56-0.43-2.91-1.51-4.03c-1.02-1.05-2.28-1.6-3.75-1.63c-1.46-0.02-2.75,0.49-3.8,1.51C10.91,10.93,10.37,12.22,10.35,13.61z
	"/>
</svg>
