<?xml version="1.0" encoding="utf-8"?>
<!-- Generator: Adobe Illustrator 24.3.0, SVG Export Plug-In . SVG Version: 6.00 Build 0)  -->
<svg version="1.1" id="Layer_1" xmlns="http://www.w3.org/2000/svg" xmlns:xlink="http://www.w3.org/1999/xlink" x="0px" y="0px"
	 viewBox="0 0 2000 2000" style="enable-background:new 0 0 2000 2000;" xml:space="preserve">
<path d="M1707.64,701.05c-38.68-91.46-94.05-173.59-164.58-244.11c-70.52-70.52-152.65-125.9-244.11-164.58
	C1204.25,252.31,1103.67,232,1000,232s-204.25,20.31-298.95,60.36c-91.46,38.68-173.59,94.05-244.11,164.58
	S331.05,609.6,292.36,701.05C252.31,795.75,232,896.33,232,1000s20.31,204.25,60.36,298.95c38.68,91.46,94.05,173.59,164.58,244.11
	c70.52,70.52,152.65,125.9,244.11,164.58c94.7,40.05,195.28,60.36,298.95,60.36s204.25-20.31,298.95-60.36
	c91.46-38.68,173.59-94.05,244.11-164.58c70.52-70.52,125.9-152.65,164.58-244.11c40.05-94.7,60.36-195.28,60.36-298.95
	S1747.69,795.75,1707.64,701.05z M1000,1720c-181.56,0-347.63-67.56-474.42-178.85c48.29-190.87,223.32-327.97,421.6-327.97h105.65
	c198.28,0,373.31,137.09,421.6,327.96C1347.64,1652.44,1181.57,1720,1000,1720z M1000,1165.18
	c-144.69,0-262.41-117.72-262.41-262.41S855.31,640.36,1000,640.36c144.69,0,262.41,117.72,262.41,262.41
	S1144.69,1165.18,1000,1165.18z M1513.8,1503.9c-12.04-38.57-28.89-75.44-50.35-110.04c-28.37-45.74-63.95-86.21-105.74-120.27
	c-42.16-34.36-89.35-61.15-140.27-79.61c-22.18-8.04-44.84-14.39-67.85-19.08c25.34-13.98,48.87-31.6,69.91-52.63
	c58.63-58.63,90.92-136.58,90.92-219.49c0-82.91-32.29-160.86-90.92-219.49c-58.63-58.63-136.58-90.92-219.49-90.92
	s-160.86,32.29-219.49,90.92c-58.63,58.63-90.92,136.58-90.92,219.49c0,82.91,32.29,160.86,90.92,219.49
	c21.03,21.03,44.57,38.66,69.91,52.64c-23.01,4.68-45.67,11.04-67.85,19.08c-50.91,18.46-98.11,45.25-140.27,79.61
	c-41.79,34.06-77.37,74.53-105.74,120.27c-21.46,34.6-38.32,71.48-50.35,110.05C358.73,1373.95,280,1196,280,1000
	c0-397.01,322.99-720,720-720c397.01,0,720,322.99,720,720C1720,1195.99,1641.28,1373.94,1513.8,1503.9z"/>
</svg>
