<?xml version="1.0" encoding="utf-8"?>
<!-- Generator: Adobe Illustrator 24.3.0, SVG Export Plug-In . SVG Version: 6.00 Build 0)  -->
<svg version="1.1" xmlns="http://www.w3.org/2000/svg" xmlns:xlink="http://www.w3.org/1999/xlink" x="0px" y="0px"
	 viewBox="0 0 1200 1200" style="enable-background:new 0 0 1200 1200;" xml:space="preserve">
<style type="text/css">
	.st0{fill:#231F20;}
</style>
<g id="Layer_4">
</g>
<g id="Layer_3">
</g>
<g id="Layer_5">
	<path class="st0" d="M917.72,591.96c65-139.61,4.88-305.81-134.02-370.48c-138.9-64.67-304.78-3.7-369.78,135.92
		c-56.99,122.41-17.79,265.24,86.35,342.18L375.45,967.66c-11.79,25.32-0.82,55.63,24.37,67.36l18.69,8.7
		c25.19,11.73,55.45,0.61,67.23-24.71l125.9-270.41C734.2,772.52,862.44,710.69,917.72,591.96z M582.93,652.72
		c-97.67-45.47-139.94-162.33-94.23-260.5s162.35-141.04,260.01-95.57c97.67,45.47,139.94,162.33,94.23,260.5
		S680.6,698.19,582.93,652.72z"/>
</g>
</svg>
