<?xml version="1.0" encoding="utf-8"?>
<!-- Generator: Adobe Illustrator 22.1.0, SVG Export Plug-In . SVG Version: 6.00 Build 0)  -->
<svg version="1.1" id="Layer_1" xmlns="http://www.w3.org/2000/svg" xmlns:xlink="http://www.w3.org/1999/xlink" x="0px" y="0px"
	 viewBox="0 0 473.3 120.6" style="enable-background:new 0 0 473.3 120.6;" xml:space="preserve">
<style type="text/css">
	.st0{fill:#1D1D1B;}
</style>
<g>
	<g>
		<path class="st0" d="M227.2,43.3c-1.3-3.4-3.9-5.8-7.9-5.8c-3.7,0-6.3,1.5-6.3,4.9c0,7.6,22.8,6,22.8,20.3
			c0,9.1-5.7,13.6-15.5,13.6c-7.2,0-14-4-16.5-10.5l7-3.1c2,4.2,4.7,6.9,9.6,6.9c4.2,0,7.5-1.6,7.5-5.9c0-8.7-22.8-7-22.8-20.6
			c0-7.9,6.6-12.4,14.3-12.4c7.1,0,13,3.6,15.6,10L227.2,43.3z"/>
		<path class="st0" d="M256.3,75.7V31.5h29.3v7.1h-20.8v10.5h15.1v7.1h-15.1v12.4h21.5v7.1H256.3z"/>
		<path class="st0" d="M305.6,75.7V31.5h17.6c10,0,14.1,5.8,14.1,13.1c0.1,5.4-2.7,9.9-8.1,11.4l9.7,19.7h-9.4l-8.3-18H314v18H305.6
			z M314,50.9h6.2c6.6,0,8.6-2.1,8.6-6.2c0-4.2-2.5-6.2-7.2-6.2H314V50.9z"/>
		<path class="st0" d="M359.8,75.7V31.5h8.4v44.2H359.8z"/>
		<path class="st0" d="M391.7,75.7V31.5h29.3v7.1h-20.8v10.5h15.1v7.1h-15.1v12.4h21.5v7.1H391.7z"/>
		<path class="st0" d="M461.8,43.3c-1.3-3.4-3.9-5.8-7.9-5.8c-3.7,0-6.3,1.5-6.3,4.9c0,7.6,22.8,6,22.8,20.3
			c0,9.1-5.7,13.6-15.5,13.6c-7.2,0-14-4-16.5-10.5l7-3.1c2,4.2,4.7,6.9,9.6,6.9c4.2,0,7.5-1.6,7.5-5.9c0-8.7-22.8-7-22.8-20.6
			c0-7.9,6.6-12.4,14.3-12.4c7.1,0,13,3.6,15.6,10L461.8,43.3z"/>
	</g>
	<g>
		<g>
			<polygon points="3.5,2.4 3.5,19.5 31.3,19.5 31.3,118.9 51.7,95.3 51.7,19.5 79.3,19.5 94.8,2.4 			"/>
		</g>
		<polygon class="st0" points="156.1,2.4 156.1,44.8 115.2,44.8 115.2,2.4 94.8,2.4 94.8,44.8 79.3,63.1 94.8,63.1 94.8,108.7 
			115.2,108.7 115.2,63.1 156.1,63.1 156.1,108.7 176.4,108.7 176.4,2.4 		"/>
	</g>
</g>
</svg>
