<?xml version="1.0" encoding="utf-8"?>
<!-- Generator: Adobe Illustrator 24.3.0, SVG Export Plug-In . SVG Version: 6.00 Build 0)  -->
<svg version="1.1" id="Calque_1" xmlns="http://www.w3.org/2000/svg" xmlns:xlink="http://www.w3.org/1999/xlink" x="0px" y="0px"
	 viewBox="0 0 197.69 98.85" style="enable-background:new 0 0 197.69 98.85;" xml:space="preserve">
<style type="text/css">
	.st0{fill:#FFFFFF;}
</style>
<g>
	<g>
		<path class="st0" d="M107.63,85.96c0,0.39,0.29,0.59,0.88,0.59h2.32c0.66,0,0.99,0.23,0.99,0.7c0,0.32-0.12,0.57-0.35,0.74
			c-0.23,0.18-0.56,0.27-0.97,0.27h-2.21c-0.82,0-1.45-0.2-1.88-0.61s-0.65-1-0.65-1.78c0-1.01,0.34-1.87,1.02-2.6
			c0.68-0.73,1.49-1.09,2.43-1.09c0.68,0,1.23,0.18,1.65,0.54c0.41,0.36,0.62,0.83,0.62,1.41c0,0.7-0.29,1.22-0.86,1.56
			c-0.32,0.19-0.79,0.29-1.42,0.29h-1.57V85.96z M108.01,84.54h0.86c0.56,0,0.83-0.12,0.81-0.37c-0.02-0.28-0.2-0.41-0.54-0.41
			C108.66,83.76,108.28,84.02,108.01,84.54z"/>
		<path class="st0" d="M114.97,83.83l0.88-1c0.39-0.44,0.76-0.66,1.09-0.66c0.23,0,0.43,0.08,0.59,0.23s0.23,0.35,0.23,0.57
			c0,0.32-0.21,0.68-0.62,1.09l-1.34,1.32l0.65,1.52l0.07,0.16c0.06,0.13,0.09,0.26,0.09,0.38c0,0.23-0.1,0.45-0.31,0.64
			s-0.44,0.29-0.69,0.29c-0.31,0-0.55-0.19-0.73-0.56l-0.48-1.06l-0.91,0.97l-0.16,0.17c-0.31,0.32-0.62,0.48-0.94,0.48
			c-0.23,0-0.43-0.08-0.58-0.23s-0.23-0.35-0.23-0.57c0-0.29,0.2-0.63,0.59-1.04l1.39-1.43l-0.6-1.4c-0.1-0.23-0.15-0.42-0.15-0.55
			c0-0.25,0.1-0.48,0.31-0.68s0.44-0.3,0.69-0.3c0.31,0,0.56,0.22,0.73,0.65L114.97,83.83z"/>
		<path class="st0" d="M119.28,87.64l-2.04,5.02c-0.28,0.69-0.69,1.04-1.24,1.04c-0.21,0-0.39-0.07-0.54-0.21s-0.22-0.3-0.22-0.5
			c0-0.16,0.07-0.41,0.2-0.73l3.77-9.29c0.19-0.47,0.53-0.7,1-0.7c0.33,0,0.59,0.16,0.78,0.47c0.36-0.39,0.81-0.58,1.34-0.58
			c0.55,0,0.99,0.21,1.33,0.62c0.34,0.41,0.5,0.96,0.5,1.64c0,1.28-0.4,2.33-1.2,3.14c-0.26,0.27-0.53,0.45-0.81,0.55
			c-0.28,0.1-0.66,0.15-1.16,0.15c-0.53,0-0.9-0.04-1.1-0.11S119.5,87.91,119.28,87.64z M119.92,86.05
			c0.13,0.23,0.25,0.38,0.37,0.45s0.3,0.1,0.56,0.1c0.37,0,0.66-0.14,0.87-0.41c0.42-0.56,0.63-1.13,0.63-1.72
			c0-0.51-0.24-0.76-0.72-0.76c-0.53,0-0.9,0.3-1.13,0.91c-0.03,0.07-0.05,0.13-0.06,0.17L119.92,86.05z"/>
		<path class="st0" d="M126.45,85.96c0,0.39,0.29,0.59,0.88,0.59h2.32c0.66,0,0.99,0.23,0.99,0.7c0,0.32-0.12,0.57-0.35,0.74
			s-0.56,0.27-0.97,0.27h-2.21c-0.82,0-1.45-0.2-1.88-0.61s-0.65-1-0.65-1.78c0-1.01,0.34-1.87,1.02-2.6
			c0.68-0.73,1.49-1.09,2.43-1.09c0.68,0,1.23,0.18,1.65,0.54c0.41,0.36,0.62,0.83,0.62,1.41c0,0.7-0.29,1.22-0.86,1.56
			c-0.32,0.19-0.79,0.29-1.42,0.29h-1.57V85.96z M126.83,84.54h0.86c0.56,0,0.83-0.12,0.81-0.37c-0.02-0.28-0.2-0.41-0.54-0.41
			C127.48,83.76,127.1,84.02,126.83,84.54z"/>
		<path class="st0" d="M132.89,83.99l-0.27,0.66c-0.24,0.58-0.55,0.88-0.94,0.88c-0.23,0-0.43-0.07-0.59-0.21s-0.23-0.32-0.23-0.52
			c0-0.12,0.06-0.32,0.17-0.61l0.88-2.18c0.21-0.53,0.52-0.79,0.91-0.79s0.62,0.18,0.71,0.55l0.06,0.24
			c0.03,0.13,0.08,0.2,0.14,0.23s0.22,0.05,0.46,0.05h1.83c0.68,0,1.02,0.24,1.02,0.72c0,0.66-0.43,0.99-1.3,0.99l-0.09,0.08
			c-0.83,0.79-1.24,1.4-1.24,1.84s0.24,0.65,0.72,0.65h0.99c0.66,0,0.99,0.23,0.99,0.69c0,0.32-0.12,0.57-0.35,0.75
			s-0.56,0.27-0.97,0.27h-1.53c-0.52,0-0.95-0.18-1.28-0.54s-0.5-0.83-0.5-1.4c0-0.36,0.09-0.72,0.27-1.06
			c0.18-0.34,0.49-0.77,0.94-1.27h-0.8V83.99z"/>
		<path class="st0" d="M141.39,82.27h0.24c0.66,0,0.99,0.23,0.99,0.7c0,0.32-0.12,0.57-0.35,0.74c-0.23,0.18-0.56,0.27-0.97,0.27
			h-0.57l-1.05,2.57h0.88c0.66,0,0.99,0.23,0.99,0.7c0,0.32-0.12,0.57-0.35,0.74s-0.56,0.27-0.97,0.27h-1.4
			c-0.4,0-0.71-0.09-0.94-0.27s-0.35-0.43-0.35-0.74c0-0.19,0.05-0.41,0.14-0.64l0.15-0.34l0.92-2.28h-0.12
			c-0.58,0-0.88-0.23-0.88-0.68c0-0.32,0.12-0.57,0.35-0.75s0.56-0.27,0.97-0.27h0.36l0.41-1.02l0.09-0.21
			c0.24-0.58,0.63-0.87,1.16-0.87c0.21,0,0.4,0.07,0.55,0.22c0.15,0.14,0.23,0.32,0.23,0.52s-0.07,0.45-0.2,0.75L141.39,82.27z"/>
		<path class="st0" d="M148.17,85.96c0,0.39,0.29,0.59,0.88,0.59h2.32c0.66,0,0.99,0.23,0.99,0.7c0,0.32-0.12,0.57-0.35,0.74
			s-0.56,0.27-0.97,0.27h-2.21c-0.82,0-1.45-0.2-1.88-0.61s-0.65-1-0.65-1.78c0-1.01,0.34-1.87,1.02-2.6s1.49-1.09,2.43-1.09
			c0.68,0,1.23,0.18,1.65,0.54c0.41,0.36,0.62,0.83,0.62,1.41c0,0.7-0.29,1.22-0.86,1.56c-0.32,0.19-0.79,0.29-1.42,0.29h-1.57
			V85.96z M148.55,84.54h0.86c0.56,0,0.83-0.12,0.81-0.37c-0.02-0.28-0.2-0.41-0.54-0.41C149.2,83.76,148.82,84.02,148.55,84.54z"/>
		<path class="st0" d="M158.45,86.55h0.94c0.66,0,0.99,0.23,0.99,0.7c0,0.32-0.12,0.57-0.35,0.74s-0.56,0.27-0.97,0.27h-1.63
			c-0.32,0-0.59-0.1-0.8-0.29c-0.22-0.19-0.32-0.44-0.32-0.73c0-0.18,0.07-0.44,0.22-0.8l0.69-1.7c0.07-0.18,0.11-0.32,0.12-0.43
			c0.01-0.13-0.05-0.23-0.15-0.32c-0.11-0.09-0.24-0.13-0.41-0.13c-0.54,0-0.97,0.4-1.3,1.21l-0.92,2.27
			c-0.28,0.69-0.69,1.03-1.24,1.03c-0.22,0-0.41-0.07-0.57-0.2c-0.16-0.14-0.23-0.3-0.23-0.5c0-0.15,0.04-0.32,0.13-0.52l0.09-0.21
			l1.58-3.89c0.2-0.51,0.55-0.76,1.04-0.76c0.4,0,0.69,0.18,0.86,0.53c0.56-0.43,1.09-0.64,1.6-0.64c0.49,0,0.89,0.14,1.21,0.42
			s0.48,0.64,0.48,1.07c0,0.24-0.06,0.5-0.17,0.79L158.45,86.55z"/>
		<path class="st0" d="M167.28,84.41l-0.15,0.36c-0.23,0.52-0.56,0.77-0.98,0.77c-0.21,0-0.41-0.07-0.57-0.22s-0.25-0.32-0.25-0.51
			c0-0.18,0.08-0.42,0.23-0.73l1.04-2.11c0.26-0.51,0.57-0.76,0.95-0.76c0.2,0,0.38,0.07,0.52,0.2c0.15,0.13,0.22,0.29,0.22,0.47
			c0,0.05-0.02,0.15-0.05,0.3c-0.02,0.11-0.03,0.22-0.03,0.3c0,0.33,0.12,0.66,0.37,1.01l0.45,0.62c0.45,0.63,0.68,1.24,0.68,1.83
			c0,0.66-0.24,1.21-0.73,1.65c-0.49,0.44-1.1,0.66-1.83,0.66h-1.63c-0.66,0-0.99-0.23-0.99-0.69c0-0.32,0.12-0.57,0.35-0.75
			c0.23-0.18,0.56-0.27,0.97-0.27h0.91c0.72,0,1.09-0.26,1.09-0.79c0-0.19-0.07-0.42-0.2-0.68L167.28,84.41z"/>
		<path class="st0" d="M173.89,82.16c0.76,0,1.38,0.24,1.86,0.72s0.73,1.09,0.73,1.83c0,0.56-0.13,1.11-0.38,1.66
			s-0.59,0.99-0.99,1.32c-0.27,0.21-0.55,0.36-0.84,0.44s-0.69,0.12-1.22,0.12c-0.85,0-1.42-0.1-1.72-0.3
			c-0.7-0.48-1.05-1.19-1.05-2.13c0-0.99,0.36-1.85,1.07-2.57C172.07,82.53,172.91,82.16,173.89,82.16z M173.7,83.83
			c-0.39,0-0.74,0.19-1.06,0.57c-0.32,0.38-0.48,0.8-0.48,1.26c0,0.6,0.34,0.91,1.02,0.91c0.4,0,0.7-0.12,0.91-0.37
			c0.35-0.4,0.53-0.86,0.53-1.38c0-0.3-0.09-0.54-0.26-0.72S173.98,83.83,173.7,83.83z"/>
		<path class="st0" d="M182.69,86.55h0.94c0.66,0,0.99,0.23,0.99,0.7c0,0.32-0.12,0.57-0.35,0.74c-0.23,0.18-0.56,0.27-0.97,0.27
			h-1.63c-0.32,0-0.59-0.1-0.8-0.29c-0.22-0.19-0.32-0.44-0.32-0.73c0-0.18,0.07-0.44,0.22-0.8l0.69-1.7
			c0.07-0.18,0.11-0.32,0.12-0.43c0.01-0.13-0.05-0.23-0.15-0.32c-0.11-0.09-0.24-0.13-0.41-0.13c-0.54,0-0.97,0.4-1.3,1.21
			l-0.92,2.27c-0.28,0.69-0.69,1.03-1.24,1.03c-0.22,0-0.41-0.07-0.57-0.2c-0.16-0.14-0.23-0.3-0.23-0.5c0-0.15,0.04-0.32,0.13-0.52
			l0.09-0.21l1.58-3.89c0.2-0.51,0.55-0.76,1.04-0.76c0.4,0,0.69,0.18,0.86,0.53c0.56-0.43,1.09-0.64,1.6-0.64
			c0.49,0,0.89,0.14,1.21,0.42s0.48,0.64,0.48,1.07c0,0.24-0.06,0.5-0.17,0.79L182.69,86.55z"/>
	</g>
	<g>
		<path class="st0" d="M68.06,21.65c8.18-2.13,16.83-3.93,25.76-5.33c13.68-2.14,26.82-3.16,38.7-3.16
			c30.86,0,53.31,6.84,55.14,18.52c0.66,4.25-1.47,8.72-5.85,13.14h1.16c4.26-4.47,6.31-8.99,5.64-13.29
			c-2.62-16.7-45.2-23.95-94.94-16.16c-10.21,1.6-20.07,3.72-29.28,6.27h3.67V21.65z"/>
		<path class="st0" d="M151.93,62.23c-13.72,5.37-30.53,9.88-48.92,12.76c-23.92,3.75-46.88,4.17-64.66,1.21
			c-17.61-2.94-27.97-8.82-29.18-16.56C8.16,53.17,13.61,46,24.64,39.05h-1.76C12.34,45.99,7.19,53.19,8.22,59.78
			C9.5,67.96,20.15,74.13,38.2,77.14c7.86,1.31,16.72,1.96,26.23,1.96c12.12,0,25.28-1.06,38.74-3.17c19.36-3.03,37-7.9,51.16-13.71
			L151.93,62.23L151.93,62.23z"/>
	</g>
	<g>
		<path class="st0" d="M23.55,34.27l2.01-2.42c0.85,1.14,1.79,1.72,2.91,1.72c1.45,0,2.22-0.87,2.22-2.6v-7.45h-5.51v-2.91h9.11
			v10.16c0,3.87-1.95,5.77-5.64,5.77C26.55,36.55,24.69,35.74,23.55,34.27z"/>
		<path class="st0" d="M49.36,31.25h-9.11c0.34,1.5,1.61,2.42,3.45,2.42c1.28,0,2.19-0.38,3.02-1.16l1.86,2.01
			c-1.12,1.28-2.8,1.95-4.97,1.95c-4.16,0-6.87-2.62-6.87-6.2c0-3.6,2.75-6.2,6.42-6.2c3.54,0,6.27,2.37,6.27,6.24
			C49.42,30.57,49.38,30.95,49.36,31.25z M40.2,29.21h5.93c-0.25-1.52-1.39-2.51-2.95-2.51C41.59,26.7,40.45,27.66,40.2,29.21z"/>
		<path class="st0" d="M63.88,24.24v12.04h-3.31v-1.43c-0.92,1.05-2.26,1.61-3.74,1.61c-3.02,0-5.15-1.7-5.15-5.42v-6.8h3.49v6.29
			c0,2.01,0.9,2.91,2.44,2.91c1.61,0,2.78-1.03,2.78-3.25v-5.95C60.39,24.24,63.88,24.24,63.88,24.24z"/>
		<path class="st0" d="M79.44,29.39v6.89h-3.49v-6.36c0-1.95-0.9-2.84-2.44-2.84c-1.68,0-2.89,1.03-2.89,3.25v5.95h-3.49V24.24h3.33
			v1.41c0.94-1.03,2.35-1.59,3.98-1.59C77.29,24.06,79.44,25.72,79.44,29.39z"/>
		<path class="st0" d="M94.45,31.25h-9.11c0.34,1.5,1.61,2.42,3.45,2.42c1.28,0,2.19-0.38,3.02-1.16l1.86,2.01
			c-1.12,1.28-2.8,1.95-4.97,1.95c-4.16,0-6.87-2.62-6.87-6.2c0-3.6,2.75-6.2,6.42-6.2c3.54,0,6.27,2.37,6.27,6.24
			C94.52,30.57,94.47,30.95,94.45,31.25z M85.3,29.21h5.93c-0.25-1.52-1.39-2.51-2.95-2.51C86.68,26.7,85.54,27.66,85.3,29.21z"/>
		<path class="st0" d="M39.44,58.4l1.16-2.51c1.07,0.69,2.71,1.16,4.19,1.16c1.61,0,2.22-0.43,2.22-1.1c0-1.97-7.27,0.04-7.27-4.77
			c0-2.28,2.06-3.89,5.57-3.89c1.66,0,3.49,0.38,4.63,1.05l-1.16,2.48c-1.19-0.67-2.37-0.9-3.47-0.9c-1.57,0-2.24,0.49-2.24,1.12
			c0,2.06,7.27,0.07,7.27,4.81c0,2.24-2.08,3.83-5.69,3.83C42.62,59.7,40.56,59.14,39.44,58.4z"/>
		<path class="st0" d="M51.59,53.5c0-3.63,2.8-6.2,6.63-6.2s6.6,2.57,6.6,6.2s-2.78,6.2-6.6,6.2C54.39,59.7,51.59,57.13,51.59,53.5z
			 M61.29,53.5c0-2.08-1.32-3.33-3.07-3.33s-3.09,1.25-3.09,3.33s1.34,3.34,3.09,3.34C59.96,56.84,61.29,55.58,61.29,53.5z"/>
		<path class="st0" d="M79.46,52.63v6.89h-3.49v-6.36c0-1.95-0.9-2.84-2.44-2.84c-1.68,0-2.89,1.03-2.89,3.25v5.95h-3.49V47.48h3.33
			v1.41c0.94-1.03,2.35-1.59,3.98-1.59C77.31,47.3,79.46,48.96,79.46,52.63z"/>
		<path class="st0" d="M81.85,53.5c0-3.63,2.8-6.2,6.62-6.2c3.83,0,6.6,2.57,6.6,6.2s-2.78,6.2-6.6,6.2S81.85,57.13,81.85,53.5z
			 M91.54,53.5c0-2.08-1.32-3.33-3.07-3.33s-3.09,1.25-3.09,3.33s1.34,3.34,3.09,3.34S91.54,55.58,91.54,53.5z"/>
		<path class="st0" d="M104.88,47.3v3.22c-0.29-0.02-0.51-0.04-0.78-0.04c-1.92,0-3.2,1.05-3.2,3.36v5.69h-3.5V47.48h3.34v1.59
			C101.59,47.91,103.02,47.3,104.88,47.3z"/>
		<path class="st0" d="M106.53,43.85c0-1.1,0.87-1.95,2.17-1.95c1.3,0,2.17,0.81,2.17,1.88c0,1.16-0.87,2.01-2.17,2.01
			C107.41,45.8,106.53,44.95,106.53,43.85z M106.96,47.48h3.49v12.04h-3.49V47.48z"/>
		<path class="st0" d="M112.53,58.4l1.16-2.51c1.07,0.69,2.71,1.16,4.19,1.16c1.61,0,2.22-0.43,2.22-1.1c0-1.97-7.27,0.04-7.27-4.77
			c0-2.28,2.06-3.89,5.57-3.89c1.66,0,3.49,0.38,4.63,1.05l-1.16,2.48c-1.19-0.67-2.37-0.9-3.47-0.9c-1.57,0-2.24,0.49-2.24,1.12
			c0,2.06,7.27,0.07,7.27,4.81c0,2.24-2.08,3.83-5.69,3.83C115.71,59.7,113.65,59.14,112.53,58.4z"/>
		<path class="st0" d="M136.23,52.65v6.87h-3.27v-1.5c-0.65,1.1-1.9,1.68-3.67,1.68c-2.82,0-4.5-1.57-4.5-3.65
			c0-2.13,1.5-3.6,5.17-3.6h2.78c0-1.5-0.9-2.37-2.78-2.37c-1.28,0-2.6,0.43-3.47,1.12l-1.25-2.44c1.32-0.94,3.27-1.45,5.19-1.45
			C134.11,47.3,136.23,49,136.23,52.65z M132.74,55.72v-1.23h-2.4c-1.63,0-2.15,0.6-2.15,1.41c0,0.87,0.74,1.45,1.97,1.45
			C131.33,57.35,132.34,56.81,132.74,55.72z"/>
		<path class="st0" d="M147.15,58.94c-0.72,0.52-1.77,0.76-2.84,0.76c-2.84,0-4.5-1.46-4.5-4.32v-4.95h-1.86v-2.69h1.86v-2.93h3.49
			v2.93h3v2.69h-3v4.9c0,1.03,0.56,1.59,1.5,1.59c0.51,0,1.03-0.16,1.41-0.45L147.15,58.94z"/>
		<path class="st0" d="M148.7,43.85c0-1.1,0.87-1.95,2.17-1.95s2.17,0.81,2.17,1.88c0,1.16-0.87,2.01-2.17,2.01
			C149.57,45.8,148.7,44.95,148.7,43.85z M149.12,47.48h3.49v12.04h-3.49V47.48z"/>
		<path class="st0" d="M154.96,53.5c0-3.63,2.8-6.2,6.63-6.2s6.6,2.57,6.6,6.2s-2.78,6.2-6.6,6.2
			C157.76,59.7,154.96,57.13,154.96,53.5z M164.65,53.5c0-2.08-1.32-3.33-3.07-3.33s-3.09,1.25-3.09,3.33s1.34,3.34,3.09,3.34
			C163.33,56.84,164.65,55.58,164.65,53.5z"/>
		<path class="st0" d="M182.83,52.63v6.89h-3.49v-6.36c0-1.95-0.9-2.84-2.44-2.84c-1.68,0-2.89,1.03-2.89,3.25v5.95h-3.49V47.48
			h3.33v1.41c0.94-1.03,2.35-1.59,3.98-1.59C180.68,47.3,182.83,48.96,182.83,52.63z"/>
	</g>
</g>
</svg>
